# xmcd
#
# Track frame offsets: 
#        150
#        7267
#        16134
#        27750
#        43449
#        52787
#        63056
#        74162
#        81754
#        103208
#        114855
#
# Disc length: 1670 seconds
#
# Revision: 0
# Processed by: cddbd v1.5.1PL2 Copyright (c) Steve Scherf et al.
# Submitted via: ExactAudioCopy v0.95a5
#
DISCID=8c06840b
DTITLE=Chicago Pete -  Blues In The Street 
DYEAR=2004
DGENRE=Blues
TTITLE0=Beebopalooliop
TTITLE1=Stop Breaking Down
TTITLE2=Change My Ways
TTITLE3=Love In Vain
TTITLE4=As Long as I Have You
TTITLE5=San Diego Ave. Shuffle
TTITLE6=Hoochie Coochie Man
TTITLE7=Me And The Devil
TTITLE8=Hug My Pillow
TTITLE9=Mean Little Girl
TTITLE10=Blow Wind Blow
EXTD=
EXTT0=
EXTT1=
EXTT2=
EXTT3=
EXTT4=
EXTT5=
EXTT6=
EXTT7=
EXTT8=
EXTT9=
EXTT10=
PLAYORDER=
